<svg width="490" height="630" viewBox="0 0 490 630" fill="none" xmlns="http://www.w3.org/2000/svg">
<g clip-path="url(#clip0_2448_962)">
<path d="M960.395 185.633L380.358 -84.8429L10.1439 709.083C4.54218 721.096 9.73951 735.375 21.7525 740.977L558.287 991.167C570.3 996.769 584.579 991.571 590.181 979.558L960.395 185.633Z" fill="#0A0A0A"/>
<rect x="-0.332232" y="0.120922" width="0.5" height="1099.5" transform="matrix(-0.906308 -0.422618 -0.422618 0.906308 933.578 61.5506)" stroke="#171717" stroke-width="0.5" stroke-dasharray="3 3"/>
<rect x="-0.332232" y="0.120922" width="0.5" height="1099.5" transform="matrix(-0.906308 -0.422618 -0.422618 0.906308 910.922 50.9842)" stroke="#171717" stroke-width="0.5" stroke-dasharray="3 3"/>
<rect x="-0.332232" y="0.120922" width="0.5" height="1099.5" transform="matrix(-0.906308 -0.422618 -0.422618 0.906308 888.265 40.4198)" stroke="#171717" stroke-width="0.5" stroke-dasharray="3 3"/>
<rect x="-0.332232" y="0.120922" width="0.5" height="1099.5" transform="matrix(-0.906308 -0.422618 -0.422618 0.906308 865.605 29.8533)" stroke="#171717" stroke-width="0.5" stroke-dasharray="3 3"/>
<rect x="-0.332232" y="0.120922" width="0.5" height="1099.5" transform="matrix(-0.906308 -0.422618 -0.422618 0.906308 842.949 19.2889)" stroke="#171717" stroke-width="0.5" stroke-dasharray="3 3"/>
<rect x="-0.332232" y="0.120922" width="0.5" height="1099.5" transform="matrix(-0.906308 -0.422618 -0.422618 0.906308 820.289 8.72248)" stroke="#171717" stroke-width="0.5" stroke-dasharray="3 3"/>
<rect x="-0.332232" y="0.120922" width="0.5" height="1099.5" transform="matrix(-0.906308 -0.422618 -0.422618 0.906308 797.633 -1.84197)" stroke="#171717" stroke-width="0.5" stroke-dasharray="3 3"/>
<rect x="-0.332232" y="0.120922" width="0.5" height="1099.5" transform="matrix(-0.906308 -0.422618 -0.422618 0.906308 774.976 -12.4084)" stroke="#171717" stroke-width="0.5" stroke-dasharray="3 3"/>
<rect x="-0.332232" y="0.120922" width="0.5" height="1099.5" transform="matrix(-0.906308 -0.422618 -0.422618 0.906308 752.316 -22.9728)" stroke="#171717" stroke-width="0.5" stroke-dasharray="3 3"/>
<rect x="-0.332232" y="0.120922" width="0.5" height="1099.5" transform="matrix(-0.906308 -0.422618 -0.422618 0.906308 729.66 -33.5392)" stroke="#171717" stroke-width="0.5" stroke-dasharray="3 3"/>
<rect x="-0.332232" y="0.120922" width="0.5" height="1099.5" transform="matrix(-0.906308 -0.422618 -0.422618 0.906308 707.004 -44.1037)" stroke="#171717" stroke-width="0.5" stroke-dasharray="3 3"/>
<rect x="-0.332232" y="0.120922" width="0.5" height="1099.5" transform="matrix(-0.906308 -0.422618 -0.422618 0.906308 684.344 -54.6701)" stroke="#171717" stroke-width="0.5" stroke-dasharray="3 3"/>
<rect x="-0.332232" y="0.120922" width="0.5" height="1099.5" transform="matrix(-0.906308 -0.422618 -0.422618 0.906308 661.687 -65.2345)" stroke="#171717" stroke-width="0.5" stroke-dasharray="3 3"/>
<rect x="-0.332232" y="0.120922" width="0.5" height="1099.5" transform="matrix(-0.906308 -0.422618 -0.422618 0.906308 639.027 -75.801)" stroke="#171717" stroke-width="0.5" stroke-dasharray="3 3"/>
<rect x="-0.332232" y="0.120922" width="0.5" height="1099.5" transform="matrix(-0.906308 -0.422618 -0.422618 0.906308 616.371 -86.3654)" stroke="#171717" stroke-width="0.5" stroke-dasharray="3 3"/>
<rect x="-0.332232" y="0.120922" width="0.5" height="1099.5" transform="matrix(-0.906308 -0.422618 -0.422618 0.906308 593.715 -96.9318)" stroke="#171717" stroke-width="0.5" stroke-dasharray="3 3"/>
<rect x="-0.332232" y="0.120922" width="0.5" height="1099.5" transform="matrix(-0.906308 -0.422618 -0.422618 0.906308 571.054 -107.496)" stroke="#171717" stroke-width="0.5" stroke-dasharray="3 3"/>
<rect x="-0.332232" y="0.120922" width="0.5" height="1099.5" transform="matrix(-0.906308 -0.422618 -0.422618 0.906308 548.398 -118.063)" stroke="#171717" stroke-width="0.5" stroke-dasharray="3 3"/>
<rect x="-0.332232" y="0.120922" width="0.5" height="1099.5" transform="matrix(-0.906308 -0.422618 -0.422618 0.906308 525.742 -128.627)" stroke="#171717" stroke-width="0.5" stroke-dasharray="3 3"/>
<rect x="-0.332232" y="0.120922" width="0.5" height="1099.5" transform="matrix(-0.906308 -0.422618 -0.422618 0.906308 503.082 -139.194)" stroke="#171717" stroke-width="0.5" stroke-dasharray="3 3"/>
<rect x="-0.332232" y="0.120922" width="0.5" height="1099.5" transform="matrix(-0.906308 -0.422618 -0.422618 0.906308 480.426 -149.758)" stroke="#171717" stroke-width="0.5" stroke-dasharray="3 3"/>
<rect x="-0.332232" y="0.120922" width="0.5" height="1099.5" transform="matrix(-0.906308 -0.422618 -0.422618 0.906308 457.769 -160.324)" stroke="#171717" stroke-width="0.5" stroke-dasharray="3 3"/>
<rect x="-0.332232" y="0.120922" width="0.5" height="1099.5" transform="matrix(-0.906308 -0.422618 -0.422618 0.906308 435.109 -170.889)" stroke="#171717" stroke-width="0.5" stroke-dasharray="3 3"/>
<rect x="-0.332232" y="0.120922" width="0.5" height="1099.5" transform="matrix(-0.906308 -0.422618 -0.422618 0.906308 412.453 -181.455)" stroke="#171717" stroke-width="0.5" stroke-dasharray="3 3"/>
<rect x="-0.332232" y="0.120922" width="0.5" height="1099.5" transform="matrix(-0.906308 -0.422618 -0.422618 0.906308 389.793 -192.02)" stroke="#171717" stroke-width="0.5" stroke-dasharray="3 3"/>
<rect x="-0.332232" y="0.120922" width="0.5" height="1099.5" transform="matrix(-0.906308 -0.422618 -0.422618 0.906308 367.137 -202.586)" stroke="#171717" stroke-width="0.5" stroke-dasharray="3 3"/>
<rect x="-0.332232" y="0.120922" width="0.5" height="1099.5" transform="matrix(-0.906308 -0.422618 -0.422618 0.906308 344.48 -213.151)" stroke="#171717" stroke-width="0.5" stroke-dasharray="3 3"/>
<rect x="-0.332232" y="0.120922" width="0.5" height="1099.5" transform="matrix(-0.906308 -0.422618 -0.422618 0.906308 321.82 -223.717)" stroke="#171717" stroke-width="0.5" stroke-dasharray="3 3"/>
<rect x="-0.332232" y="0.120922" width="0.5" height="1099.5" transform="matrix(-0.906308 -0.422618 -0.422618 0.906308 299.164 -234.283)" stroke="#171717" stroke-width="0.5" stroke-dasharray="3 3"/>
<rect x="-0.332232" y="0.120922" width="0.5" height="1099.5" transform="matrix(-0.906308 -0.422618 -0.422618 0.906308 276.508 -244.848)" stroke="#171717" stroke-width="0.5" stroke-dasharray="3 3"/>
</g>
<defs>
<clipPath id="clip0_2448_962">
<path d="M960.395 185.633L380.358 -84.8429L10.1439 709.083C4.54218 721.096 9.73951 735.375 21.7525 740.977L558.287 991.167C570.3 996.769 584.579 991.571 590.181 979.558L960.395 185.633Z" fill="white"/>
</clipPath>
</defs>
</svg>
