<svg width="490" height="630" viewBox="0 0 490 630" fill="none" xmlns="http://www.w3.org/2000/svg">
<g clip-path="url(#clip0_2448_1004)">
<path d="M-470.996 185.479L109.041 -84.9972L479.255 708.928C484.856 720.941 479.659 735.221 467.646 740.823L-68.8882 991.013C-80.9012 996.614 -95.1808 991.417 -100.782 979.404L-470.996 185.479Z" fill="#0A0A0A"/>
<rect x="-444.429" y="61.6463" width="0.5" height="1099.5" transform="rotate(-25 -444.429 61.6463)" stroke="#171717" stroke-width="0.5" stroke-dasharray="3 3"/>
<rect x="-421.773" y="51.0799" width="0.5" height="1099.5" transform="rotate(-25 -421.773 51.0799)" stroke="#171717" stroke-width="0.5" stroke-dasharray="3 3"/>
<rect x="-399.117" y="40.5155" width="0.5" height="1099.5" transform="rotate(-25 -399.117 40.5155)" stroke="#171717" stroke-width="0.5" stroke-dasharray="3 3"/>
<rect x="-376.457" y="29.949" width="0.5" height="1099.5" transform="rotate(-25 -376.457 29.949)" stroke="#171717" stroke-width="0.5" stroke-dasharray="3 3"/>
<rect x="-353.801" y="19.3846" width="0.5" height="1099.5" transform="rotate(-25 -353.801 19.3846)" stroke="#171717" stroke-width="0.5" stroke-dasharray="3 3"/>
<rect x="-331.14" y="8.81819" width="0.5" height="1099.5" transform="rotate(-25 -331.14 8.81819)" stroke="#171717" stroke-width="0.5" stroke-dasharray="3 3"/>
<rect x="-308.484" y="-1.74627" width="0.5" height="1099.5" transform="rotate(-25 -308.484 -1.74627)" stroke="#171717" stroke-width="0.5" stroke-dasharray="3 3"/>
<rect x="-285.828" y="-12.3127" width="0.5" height="1099.5" transform="rotate(-25 -285.828 -12.3127)" stroke="#171717" stroke-width="0.5" stroke-dasharray="3 3"/>
<rect x="-263.168" y="-22.8771" width="0.5" height="1099.5" transform="rotate(-25 -263.168 -22.8771)" stroke="#171717" stroke-width="0.5" stroke-dasharray="3 3"/>
<rect x="-240.512" y="-33.4435" width="0.5" height="1099.5" transform="rotate(-25 -240.512 -33.4435)" stroke="#171717" stroke-width="0.5" stroke-dasharray="3 3"/>
<rect x="-217.855" y="-44.008" width="0.5" height="1099.5" transform="rotate(-25 -217.855 -44.008)" stroke="#171717" stroke-width="0.5" stroke-dasharray="3 3"/>
<rect x="-195.195" y="-54.5744" width="0.5" height="1099.5" transform="rotate(-25 -195.195 -54.5744)" stroke="#171717" stroke-width="0.5" stroke-dasharray="3 3"/>
<rect x="-172.539" y="-65.1388" width="0.5" height="1099.5" transform="rotate(-25 -172.539 -65.1388)" stroke="#171717" stroke-width="0.5" stroke-dasharray="3 3"/>
<rect x="-149.879" y="-75.7052" width="0.5" height="1099.5" transform="rotate(-25 -149.879 -75.7052)" stroke="#171717" stroke-width="0.5" stroke-dasharray="3 3"/>
<rect x="-127.222" y="-86.2697" width="0.5" height="1099.5" transform="rotate(-25 -127.222 -86.2697)" stroke="#171717" stroke-width="0.5" stroke-dasharray="3 3"/>
<rect x="-104.566" y="-96.8361" width="0.5" height="1099.5" transform="rotate(-25 -104.566 -96.8361)" stroke="#171717" stroke-width="0.5" stroke-dasharray="3 3"/>
<rect x="-81.906" y="-107.401" width="0.5" height="1099.5" transform="rotate(-25 -81.906 -107.401)" stroke="#171717" stroke-width="0.5" stroke-dasharray="3 3"/>
<rect x="-59.2498" y="-117.967" width="0.5" height="1099.5" transform="rotate(-25 -59.2498 -117.967)" stroke="#171717" stroke-width="0.5" stroke-dasharray="3 3"/>
<rect x="-36.5935" y="-128.531" width="0.5" height="1099.5" transform="rotate(-25 -36.5935 -128.531)" stroke="#171717" stroke-width="0.5" stroke-dasharray="3 3"/>
<rect x="-13.9334" y="-139.098" width="0.5" height="1099.5" transform="rotate(-25 -13.9334 -139.098)" stroke="#171717" stroke-width="0.5" stroke-dasharray="3 3"/>
<rect x="8.72286" y="-149.662" width="0.5" height="1099.5" transform="rotate(-25 8.72286 -149.662)" stroke="#171717" stroke-width="0.5" stroke-dasharray="3 3"/>
<rect x="31.3791" y="-160.229" width="0.5" height="1099.5" transform="rotate(-25 31.3791 -160.229)" stroke="#171717" stroke-width="0.5" stroke-dasharray="3 3"/>
<rect x="54.0393" y="-170.793" width="0.5" height="1099.5" transform="rotate(-25 54.0393 -170.793)" stroke="#171717" stroke-width="0.5" stroke-dasharray="3 3"/>
<rect x="76.6955" y="-181.36" width="0.5" height="1099.5" transform="rotate(-25 76.6955 -181.36)" stroke="#171717" stroke-width="0.5" stroke-dasharray="3 3"/>
<rect x="99.3557" y="-191.924" width="0.5" height="1099.5" transform="rotate(-25 99.3557 -191.924)" stroke="#171717" stroke-width="0.5" stroke-dasharray="3 3"/>
<rect x="122.012" y="-202.49" width="0.5" height="1099.5" transform="rotate(-25 122.012 -202.49)" stroke="#171717" stroke-width="0.5" stroke-dasharray="3 3"/>
<rect x="144.668" y="-213.055" width="0.5" height="1099.5" transform="rotate(-25 144.668 -213.055)" stroke="#171717" stroke-width="0.5" stroke-dasharray="3 3"/>
<rect x="167.328" y="-223.621" width="0.5" height="1099.5" transform="rotate(-25 167.328 -223.621)" stroke="#171717" stroke-width="0.5" stroke-dasharray="3 3"/>
<rect x="189.985" y="-234.188" width="0.5" height="1099.5" transform="rotate(-25 189.985 -234.188)" stroke="#171717" stroke-width="0.5" stroke-dasharray="3 3"/>
<rect x="212.641" y="-244.752" width="0.5" height="1099.5" transform="rotate(-25 212.641 -244.752)" stroke="#171717" stroke-width="0.5" stroke-dasharray="3 3"/>
</g>
<defs>
<clipPath id="clip0_2448_1004">
<path d="M-470.996 185.479L109.041 -84.9972L479.255 708.928C484.856 720.941 479.659 735.221 467.646 740.823L-68.8882 991.013C-80.9012 996.614 -95.1808 991.417 -100.782 979.404L-470.996 185.479Z" fill="white"/>
</clipPath>
</defs>
</svg>
